# xmcd
# Track frame offsets:
# 150
# 19027
# 32070
# 48840
# 73093
# 88392
# 102821
# 121101
# 135543
# 153284
# 170560
# 190272
# 209160
# 231084
# 251534
# 272592
#
# Disc length: 3846 seconds
# Revision: 0
# Processed by: cddbd v1.5.1PL2 Copyright (c) Steve Scherf et al.
# Submitted via: VisiTrax 2.9.10.228 - For more info visit www.synapsa.com
#
DISCID=dc0f0410
DTITLE=ARTISTI VARI - OBSESION Y AMOR
DYEAR=1900
DGENRE=
TTITLE0=AVENTURA - OBSESION
TTITLE1=LORNA - PAPI CHULO..TE TRAICO EL MMMM
TTITLE2=NOELLA - ENAMORADA
TTITLE3=RITMO - DYNAMIC BY LAURENT WOLF - CALINDA
TTITLE4=BLANKITA LOPEZ - BABALOO
TTITLE5=THE HEARTISTS - BELO HORIZONTE
TTITLE6=EROS PRESENTS RICHARD D - ENAMORADA
TTITLE7=GUSTO SABROSO - JE SEI ENAMORADA
TTITLE8=JOSE' LOPEZ - ME GUSTAS TU
TTITLE9=ARAJA - RITMO DE LA NOCHE
TTITLE10=PEDRO LANDAURO - DE PUNTA A PUNTA
TTITLE11=BACHATA BAND - FIESTA LATINA
TTITLE12=PEDRO LANDAURO - SIENTO QUE TE QUIERO
TTITLE13=SONORA - RAYNI - PERALTA - MORENA YO SOY TU MARIDO
TTITLE14=PEDRO LANDAURO - QUE VUELVA
TTITLE15=CICHO CESAR - MAMA AFRICA
EXTD=
EXTT0=
EXTT1=
EXTT2=
EXTT3=
EXTT4=
EXTT5=
EXTT6=
EXTT7=
EXTT8=
EXTT9=
EXTT10=
EXTT11=
EXTT12=
EXTT13=
EXTT14=
EXTT15=
PLAYORDER=
